<?xml version="1.0" encoding="UTF-8" standalone="no"?>
<!-- Created with Inkscape (http://www.inkscape.org/) -->

<svg
   xmlns:dc="http://purl.org/dc/elements/1.1/"
   xmlns:cc="http://creativecommons.org/ns#"
   xmlns:rdf="http://www.w3.org/1999/02/22-rdf-syntax-ns#"
   xmlns:svg="http://www.w3.org/2000/svg"
   xmlns="http://www.w3.org/2000/svg"
   xmlns:sodipodi="http://sodipodi.sourceforge.net/DTD/sodipodi-0.dtd"
   xmlns:inkscape="http://www.inkscape.org/namespaces/inkscape"
   width="48pt"
   height="48pt"
   viewBox="0 0 16.933334 16.933333"
   version="1.1"
   id="svg979"
   inkscape:version="0.92.4 (5da689c313, 2019-01-14)"
   sodipodi:docname="22 - Payment Tac.svg"
   inkscape:export-filename="E:\TR Design Studio Creative\Project Design\TR Creative Design\Icon Design\Project Hiring\Icon Icons\003 - Business And Finance\Line\Export\22 - Payment Tax.png"
   inkscape:export-xdpi="768"
   inkscape:export-ydpi="768">
  <defs
     id="defs973" />
  <sodipodi:namedview
     id="base"
     pagecolor="#ffffff"
     bordercolor="#666666"
     borderopacity="1.0"
     inkscape:pageopacity="0.0"
     inkscape:pageshadow="2"
     inkscape:zoom="8.546875"
     inkscape:cx="32"
     inkscape:cy="32"
     inkscape:document-units="pt"
     inkscape:current-layer="layer1"
     showgrid="false"
     units="pt"
     inkscape:window-width="1366"
     inkscape:window-height="716"
     inkscape:window-x="-8"
     inkscape:window-y="-8"
     inkscape:window-maximized="1"
     inkscape:snap-bbox="true"
     inkscape:bbox-nodes="true"
     inkscape:snap-nodes="false"
     showguides="false">
    <inkscape:grid
       type="xygrid"
       id="grid1526" />
    <sodipodi:guide
       position="0.97013909,15.963209"
       orientation="56.666615,0"
       id="guide1528"
       inkscape:locked="false" />
    <sodipodi:guide
       position="0.97013909,0.97016731"
       orientation="0,56.666667"
       id="guide1530"
       inkscape:locked="false" />
    <sodipodi:guide
       position="15.963195,0.97016731"
       orientation="-56.666615,0"
       id="guide1532"
       inkscape:locked="false" />
    <sodipodi:guide
       position="15.963195,15.963209"
       orientation="0,-56.666667"
       id="guide1534"
       inkscape:locked="false" />
  </sodipodi:namedview>
  <metadata
     id="metadata976">
    <rdf:RDF>
      <cc:Work
         rdf:about="">
        <dc:format>image/svg+xml</dc:format>
        <dc:type
           rdf:resource="http://purl.org/dc/dcmitype/StillImage" />
        <dc:title></dc:title>
      </cc:Work>
    </rdf:RDF>
  </metadata>
  <g
     inkscape:label="Layer 1"
     inkscape:groupmode="layer"
     id="layer1"
     transform="translate(0,-280.06668)">
    <path
       style="color:#000000;font-style:normal;font-variant:normal;font-weight:normal;font-stretch:normal;font-size:medium;line-height:normal;font-family:sans-serif;font-variant-ligatures:normal;font-variant-position:normal;font-variant-caps:normal;font-variant-numeric:normal;font-variant-alternates:normal;font-feature-settings:normal;text-indent:0;text-align:start;text-decoration:none;text-decoration-line:none;text-decoration-style:solid;text-decoration-color:#000000;letter-spacing:normal;word-spacing:normal;text-transform:none;writing-mode:lr-tb;direction:ltr;text-orientation:mixed;dominant-baseline:auto;baseline-shift:baseline;text-anchor:start;white-space:normal;shape-padding:0;clip-rule:nonzero;display:inline;overflow:visible;visibility:visible;opacity:1;isolation:auto;mix-blend-mode:normal;color-interpolation:sRGB;color-interpolation-filters:linearRGB;solid-color:#000000;solid-opacity:1;vector-effect:none;fill:#000000;fill-opacity:1;fill-rule:nonzero;stroke:none;stroke-width:0.529167;stroke-linecap:round;stroke-linejoin:round;stroke-miterlimit:1.5;stroke-dasharray:none;stroke-dashoffset:0;stroke-opacity:1;paint-order:markers fill stroke;color-rendering:auto;image-rendering:auto;shape-rendering:auto;text-rendering:auto;enable-background:accumulate"
       d="m 4.8816908,281.03689 c -0.7165762,0 -1.3036279,0.58705 -1.3036279,1.30363 v 2.93253 c 2.438e-4,0.24182 0.2544924,0.39918 0.4710373,0.29154 l 0.5079566,-0.25271 0.5054103,0.25271 c 0.091589,0.0457 0.1993091,0.0457 0.2908974,0 l 0.1801401,-0.0898 v 2.73142 H 2.1923219 c -0.6714452,0 -1.22215109,0.55072 -1.22215109,1.22215 v 5.37938 c 0,0.67144 0.55070589,1.22215 1.22215109,1.22215 h 4.3997452 c 0.6714432,0 1.222151,-0.55071 1.222151,-1.22215 v -0.0822 H 14.6589 c 0.716571,0 1.304263,-0.58707 1.304263,-1.30364 v -11.08147 c 0,-0.71659 -0.587685,-1.30363 -1.304263,-1.30363 z m 0,0.65182 c 0.3667385,0 0.6518138,0.28507 0.6518138,0.65181 v 2.40611 l -0.3246338,0.16359 -0.5073202,-0.2527 c -0.091762,-0.0458 -0.1997715,-0.0458 -0.2915339,0 l -0.1801398,0.0891 v -2.40611 c 0,-0.36674 0.285075,-0.65181 0.6518139,-0.65181 z m 1.1215781,0 H 14.6589 c 0.366743,0 0.651814,0.28507 0.651814,0.65181 v 11.08147 c 0,0.36675 -0.285068,0.65182 -0.651814,0.65182 H 7.8142181 v -4.64545 c 0,-0.67143 -0.5507078,-1.22215 -1.222151,-1.22215 H 6.1859544 c 3.3e-6,-1.95534 0,-3.91045 0,-5.86573 0,-0.23809 -0.069808,-0.45907 -0.1826855,-0.65182 z m 1.1279428,0.65181 c -0.4247024,0.0297 -0.3944028,0.66286 0.03119,0.65182 h 4.8886043 c 0.444026,0.01 0.444026,-0.66141 0,-0.65182 H 7.1624015 c -0.010396,-6.6e-4 -0.020792,-6.6e-4 -0.03119,0 z m 6.1928713,0 c -0.424705,0.0297 -0.394406,0.66286 0.03119,0.65182 h 0.978992 c 0.444025,0.01 0.444025,-0.66141 0,-0.65182 h -0.978992 c -0.01035,-6.6e-4 -0.02079,-6.6e-4 -0.03119,0 z m -6.4863766,1.95639 v 3.25779 c -6.519e-4,0.17999 0.1446506,0.32646 0.324636,0.32718 h 7.1718596 c 0.179985,-6.6e-4 0.32532,-0.14719 0.324636,-0.32718 v -3.25779 c 6.52e-4,-0.17999 -0.144651,-0.32647 -0.324636,-0.32719 H 7.1623424 c -0.1871424,0 -0.324636,0.13846 -0.324636,0.32719 z m 0.6518759,0.32432 h 0.6518138 v 0.65182 H 7.4895823 Z m 1.3042632,0 h 1.9535355 v 0.65182 H 8.7938455 Z m 2.6053495,0 h 1.303627 v 0.65182 h -1.303627 z m 1.956077,0 h 0.651813 v 0.65182 h -0.651813 z m -5.8656897,1.30427 h 0.6518138 v 1.30362 H 7.4895823 Z m 1.3042632,0 h 1.9535355 v 1.30362 H 8.7938455 Z m 2.6053495,0 h 1.303627 v 1.30362 h -1.303627 z m 1.956077,0 h 0.651813 v 1.30362 h -0.651813 z m -4.5945256,2.60726 -6.517e-4,6.5e-4 c -0.4245004,0.0314 -0.3917434,0.66436 0.033735,0.65181 h 5.5404173 c 0.444407,0.01 0.444407,-0.66179 0,-0.65181 H 8.7938293 c -0.011012,-6.5e-4 -0.022064,-9.9e-4 -0.033099,-6.5e-4 z m -6.5684245,0.32526 h 4.3997452 c 0.3216148,0 0.5703371,0.24872 0.5703371,0.57034 v 5.37938 c 0,0.32161 -0.2487223,0.56969 -0.5703371,0.56969 H 2.1923219 c -0.3216137,0 -0.5703371,-0.24808 -0.5703371,-0.56969 v -5.37938 c 0,-0.32162 0.2487234,-0.57034 0.5703371,-0.57034 z m 0.081481,1.02752 v 1.25589 c 3.585e-4,0.18024 0.1469465,0.32596 0.32718,0.32527 h 3.5843399 c 0.17949,-3.2e-4 0.3249031,-0.14578 0.3252714,-0.32527 v -1.30363 c 6.515e-4,-0.18024 -0.1450355,-0.32682 -0.3252718,-0.32717 H 2.6442632 c -0.2017182,0 -0.3704607,0.17916 -0.3704603,0.37491 z m 11.4226511,-0.053 c -0.107189,0.004 -0.205973,0.0589 -0.26416,0.14894 l -1.304267,1.95608 c -0.28363,0.36854 0.309748,0.76434 0.541058,0.36093 l 1.304263,-1.95609 c 0.149998,-0.21929 -0.01133,-0.51628 -0.276894,-0.50986 z m -1.623805,0.005 c -0.356125,0 -0.651814,0.2957 -0.651814,0.65182 0,0.35613 0.295689,0.65246 0.651814,0.65246 0.356128,0 0.651814,-0.29633 0.651814,-0.65246 0,-0.35613 -0.295686,-0.65182 -0.651814,-0.65182 z m -9.1470358,0.32417 h 2.9331625 v 0.65244 H 2.9256128 Z m 11.0814718,0.99872 c -0.356128,0 -0.651813,0.29569 -0.651813,0.65181 0,0.35615 0.295685,0.65181 0.651813,0.65181 0.356126,0 0.651815,-0.29567 0.651815,-0.65181 0,-0.35613 -0.295689,-0.65181 -0.651815,-0.65181 z m -5.2132388,0.63016 c -0.4444067,-0.01 -0.4444067,0.6618 0,0.65182 H 10.42211 c 0.444407,0.01 0.444407,-0.66179 0,-0.65182 z m -6.2266036,0.32719 c -0.4248903,0.031 -0.3920943,0.66475 0.033737,0.65182 h 1.3042643 c 0.4440267,0.01 0.4440267,-0.66141 0,-0.65182 H 2.6009785 c -0.011234,-6.5e-4 -0.022497,-6.5e-4 -0.033736,0 z m 2.2832585,0 c -0.424703,0.0296 -0.3944031,0.66287 0.03119,0.65182 h 0.32718 c 0.4440267,0.01 0.4440267,-0.66141 0,-0.65182 H 4.8816898 c -0.010384,-6.5e-4 -0.0208,-6.5e-4 -0.031189,0 z m 3.9096105,0.65182 c -0.4349098,0.0225 -0.4011751,0.67498 0.033735,0.65244 h 2.6053494 c 0.434965,0 0.434965,-0.65244 0,-0.65244 H 8.7938455 c -0.011246,-6.6e-4 -0.022487,-6.6e-4 -0.033734,0 z m -6.1591324,0.32527 c -0.4440267,-0.01 -0.4440267,0.6614 0,0.65181 h 0.324634 c 0.4440267,0.01 0.4440267,-0.6614 0,-0.65181 z m 1.6288983,0 c -0.4440267,-0.01 -0.4440267,0.6614 0,0.65181 h 0.32718 c 0.4440266,0.01 0.4440266,-0.6614 0,-0.65181 z m 1.6288982,0 c -0.4440266,-0.01 -0.4440266,0.6614 0,0.65181 h 0.327179 c 0.4440254,0.01 0.4440254,-0.6614 0,-0.65181 z m -3.2915331,0.97899 c -0.4248903,0.031 -0.3920943,0.66474 0.033737,0.65181 h 0.3246335 c 0.4440267,0.01 0.4440267,-0.66141 0,-0.65181 H 2.6009785 c -0.011234,-6.5e-4 -0.022497,-6.5e-4 -0.033736,0 z m 1.6314447,0 c -0.4247031,0.0297 -0.3944032,0.66287 0.03119,0.65181 h 0.32718 c 0.4440266,0.01 0.4440266,-0.66141 0,-0.65181 H 4.2298759 c -0.010384,-6.5e-4 -0.0208,-6.5e-4 -0.031189,0 z m 1.6282614,0 c -0.4257117,0.0292 -0.3946981,0.66427 0.031828,0.65181 H 6.185955 c 0.4440255,0.01 0.4440255,-0.66141 0,-0.65181 H 5.8587761 c -0.010606,-6.5e-4 -0.021226,-6.5e-4 -0.031827,0 z"
       id="rect1789"
       inkscape:connector-curvature="0"
       sodipodi:nodetypes="sscccccccsssssscssssssscccccsscsssscsscccccccccccccccccccccccccccccccccccccccccccccccccccccccccccccccccccccccccssssssssscccccccccccccccssssscccccssssscccccccccccccccccccssccccccccccccccccccccccccccccccccccc" />
  </g>
</svg>
