<?xml version="1.0" ?><svg id="outine" viewBox="0 0 48 48" xmlns="http://www.w3.org/2000/svg"><title/><path d="M24.027,37.912a2.78,2.78,0,0,0-3.608-1.56l-7.93,3.142a2.781,2.781,0,0,0,1.024,5.365,2.789,2.789,0,0,0,1.024-.2l7.93-3.142A2.784,2.784,0,0,0,24.027,37.912ZM13.984,43.267a1.279,1.279,0,0,1-1.645-1.7,1.274,1.274,0,0,1,.7-.682l3.267-1.294.943,2.379Zm7.93-3.142-3.267,1.3L17.7,39.041l3.268-1.294a1.28,1.28,0,0,1,1.661.717A1.281,1.281,0,0,1,21.914,40.125Z"/><path d="M35.177,37.317,31.8,34.708h0L28.431,32.1a2.778,2.778,0,0,0-3.9.5,2.784,2.784,0,0,0,.5,3.9l6.746,5.219a2.78,2.78,0,1,0,3.4-4.4Zm-9.458-3.8a1.269,1.269,0,0,1,.849-.486,1.3,1.3,0,0,1,.164-.01,1.265,1.265,0,0,1,.781.268l2.78,2.15-1.566,2.024-2.78-2.15A1.283,1.283,0,0,1,25.719,33.513Zm8.77,6.785a1.281,1.281,0,0,1-1.8.229l-2.78-2.15,1.566-2.024,2.78,2.15A1.282,1.282,0,0,1,34.489,40.3Z"/><path d="M32.354,42.441H23.825a2.78,2.78,0,0,0,0,5.559h8.529a2.78,2.78,0,1,0,0-5.559Zm-9.808,2.78a1.281,1.281,0,0,1,1.279-1.28H27.34V46.5H23.825A1.281,1.281,0,0,1,22.546,45.221ZM32.354,46.5H28.84V43.941h3.514a1.28,1.28,0,1,1,0,2.559Z"/><path d="M45.551,40.6a4.458,4.458,0,1,0-3.635,7.392c.1.006.2.009.292.009a4.458,4.458,0,0,0,3.343-7.4Zm-5.3.722a2.937,2.937,0,0,1,3.6-.225l-4.282,3.765a2.924,2.924,0,0,1,.682-3.54Zm3.906,4.442a2.925,2.925,0,0,1-3.6.224l4.281-3.763A2.954,2.954,0,0,1,44.155,45.763Z"/><path d="M39.894,37.987a4.458,4.458,0,1,0-4.909-3.957h0a4.458,4.458,0,0,0,4.423,3.982A4.665,4.665,0,0,0,39.894,37.987ZM37.115,31.7A2.943,2.943,0,0,1,39.1,30.613a3.06,3.06,0,0,1,.317-.017,2.958,2.958,0,0,1,2.751,1.909l-5.667.608A2.929,2.929,0,0,1,37.115,31.7Zm.447,4.159a2.925,2.925,0,0,1-.9-1.253L42.332,34a2.948,2.948,0,0,1-4.77,1.861Z"/><path d="M24.768,41.766a4.789,4.789,0,0,0,2.818-.909.75.75,0,1,0-.877-1.216,3.306,3.306,0,0,1-1.941.625.75.75,0,1,0,0,1.5Z"/><path d="M9.185,40.266H6.166A3.331,3.331,0,0,1,2.84,36.939V35.1H22.5a.75.75,0,1,0,0-1.5H2.84V18.387H6.2a.75.75,0,0,0,0-1.5H2.84V13.533a3.33,3.33,0,0,1,3.326-3.326h18.6a3.33,3.33,0,0,1,3.326,3.326v3.354H8.77a.75.75,0,0,0,0,1.5H28.094V30.321a.75.75,0,1,0,1.5,0V13.533a4.832,4.832,0,0,0-4.826-4.826h-2.7v-2.4h3.7a.75.75,0,0,0,.75-.75V.75a.75.75,0,0,0-.75-.75H5.173a.75.75,0,0,0-.75.75V5.557a.75.75,0,0,0,.75.75H8.867v2.4h-2.7A4.832,4.832,0,0,0,1.34,13.533V36.939a4.832,4.832,0,0,0,4.826,4.827H9.185a.75.75,0,1,0,0-1.5ZM10.367,6.307h7.182a.75.75,0,0,0,0-1.5H5.923V1.5H25.011V4.807H20.064a.75.75,0,0,0,0,1.5h.5v2.4h-10.2Z"/><path d="M17.309,31.276H13.625a.75.75,0,0,1-.75-.75V28.563H10.912a.75.75,0,0,1-.75-.75V24.129a.75.75,0,0,1,.75-.75h1.963V21.416a.75.75,0,0,1,.75-.75h3.684a.75.75,0,0,1,.75.75v1.963h1.962a.75.75,0,0,1,.75.75v3.684a.75.75,0,0,1-.75.75H18.059v1.963A.75.75,0,0,1,17.309,31.276Zm-2.934-1.5h2.184V27.813a.75.75,0,0,1,.75-.75h1.962V24.879H17.309a.75.75,0,0,1-.75-.75V22.166H14.375v1.963a.75.75,0,0,1-.75.75H11.662v2.184h1.963a.75.75,0,0,1,.75.75Z"/></svg>