<?xml version="1.0" ?><svg viewBox="0 0 64 64" xmlns="http://www.w3.org/2000/svg"><defs><style>.cls-1{fill:none;stroke:#000;stroke-linecap:round;stroke-linejoin:round;stroke-width:2px;}</style></defs><g id="deal"><polyline class="cls-1" points="44.303 16 63 16 63 34 23 34 23 25.251"/><polyline class="cls-1" points="40 28 46 28 46 25 40 25 40 22 46 22"/><line class="cls-1" x1="43" x2="43" y1="30" y2="20"/><circle cx="6.9309" cy="42.3994" r="1.0691"/><line class="cls-1" x1="12.5858" x2="15.4142" y1="37.0858" y2="39.9142"/><line class="cls-1" x1="15.4142" x2="12.5858" y1="37.0858" y2="39.9142"/><circle class="cls-1" cx="56.5" cy="7.5" r="2.5"/><path class="cls-1" d="M51,31h4a5,5,0,0,1,5-5V22"/><circle cx="59" cy="30" r="1"/><path class="cls-1" d="M55.7819,53.3951,47,51,32,54,14.3654,51.2156A1.6177,1.6177,0,0,1,13,49.6177h0A1.6177,1.6177,0,0,1,14.6177,48H25V46.8465A3.8465,3.8465,0,0,1,28.8465,43H35s2-5,9-4c6.2779.8968,6.1212,2.598,11.7928,2.9394"/><polyline class="cls-1" points="24 48 36 48 41 46"/><rect class="cls-1" height="16" transform="translate(119 96) rotate(-180)" width="7" x="56" y="40"/><circle cx="59" cy="43" r="1"/><path class="cls-1" d="M8.1247,10.58,17,13l15-3,17.6346,2.7844A1.6177,1.6177,0,0,1,51,14.3823h0A1.6177,1.6177,0,0,1,49.3823,16H39v1.1535A3.8465,3.8465,0,0,1,35.1535,21H29s-2,5-9,4c-6.2843-.8978-6.1209-2.6015-11.81-2.94"/><polyline class="cls-1" points="40 16 28 16 23 18"/><rect class="cls-1" height="16" width="7" x="1" y="8"/><circle cx="5" cy="21" r="1"/></g></svg>